G04 EAGLE Gerber RS-274X export*
G75*
%MOMM*%
%FSLAX34Y34*%
%LPD*%
%AMOC8*
5,1,8,0,0,1.08239X$1,22.5*%
G01*
%ADD10C,0.254000*%


D10*
X0Y10000D02*
X10000Y0D01*
X990000Y0D01*
X1000000Y10000D01*
X1000000Y990000D01*
X990000Y1000000D01*
X10000Y1000000D01*
X0Y990000D01*
X0Y10000D01*
X295000Y279464D02*
X294924Y278396D01*
X294771Y277335D01*
X294543Y276288D01*
X294241Y275260D01*
X293867Y274256D01*
X293422Y273281D01*
X292908Y272341D01*
X292329Y271440D01*
X291687Y270582D01*
X290985Y269772D01*
X290228Y269015D01*
X289418Y268313D01*
X288560Y267671D01*
X287659Y267092D01*
X286719Y266578D01*
X285744Y266133D01*
X284740Y265759D01*
X283712Y265457D01*
X282665Y265229D01*
X281604Y265076D01*
X280536Y265000D01*
X279464Y265000D01*
X278396Y265076D01*
X277335Y265229D01*
X276288Y265457D01*
X275260Y265759D01*
X274256Y266133D01*
X273281Y266578D01*
X272341Y267092D01*
X271440Y267671D01*
X270582Y268313D01*
X269772Y269015D01*
X269015Y269772D01*
X268313Y270582D01*
X267671Y271440D01*
X267092Y272341D01*
X266578Y273281D01*
X266133Y274256D01*
X265759Y275260D01*
X265457Y276288D01*
X265229Y277335D01*
X265076Y278396D01*
X265000Y279464D01*
X265000Y280536D01*
X265076Y281604D01*
X265229Y282665D01*
X265457Y283712D01*
X265759Y284740D01*
X266133Y285744D01*
X266578Y286719D01*
X267092Y287659D01*
X267671Y288560D01*
X268313Y289418D01*
X269015Y290228D01*
X269772Y290985D01*
X270582Y291687D01*
X271440Y292329D01*
X272341Y292908D01*
X273281Y293422D01*
X274256Y293867D01*
X275260Y294241D01*
X276288Y294543D01*
X277335Y294771D01*
X278396Y294924D01*
X279464Y295000D01*
X280536Y295000D01*
X281604Y294924D01*
X282665Y294771D01*
X283712Y294543D01*
X284740Y294241D01*
X285744Y293867D01*
X286719Y293422D01*
X287659Y292908D01*
X288560Y292329D01*
X289418Y291687D01*
X290228Y290985D01*
X290985Y290228D01*
X291687Y289418D01*
X292329Y288560D01*
X292908Y287659D01*
X293422Y286719D01*
X293867Y285744D01*
X294241Y284740D01*
X294543Y283712D01*
X294771Y282665D01*
X294924Y281604D01*
X295000Y280536D01*
X295000Y279464D01*
X495000Y279464D02*
X494924Y278396D01*
X494771Y277335D01*
X494543Y276288D01*
X494241Y275260D01*
X493867Y274256D01*
X493422Y273281D01*
X492908Y272341D01*
X492329Y271440D01*
X491687Y270582D01*
X490985Y269772D01*
X490228Y269015D01*
X489418Y268313D01*
X488560Y267671D01*
X487659Y267092D01*
X486719Y266578D01*
X485744Y266133D01*
X484740Y265759D01*
X483712Y265457D01*
X482665Y265229D01*
X481604Y265076D01*
X480536Y265000D01*
X479464Y265000D01*
X478396Y265076D01*
X477335Y265229D01*
X476288Y265457D01*
X475260Y265759D01*
X474256Y266133D01*
X473281Y266578D01*
X472341Y267092D01*
X471440Y267671D01*
X470582Y268313D01*
X469772Y269015D01*
X469015Y269772D01*
X468313Y270582D01*
X467671Y271440D01*
X467092Y272341D01*
X466578Y273281D01*
X466133Y274256D01*
X465759Y275260D01*
X465457Y276288D01*
X465229Y277335D01*
X465076Y278396D01*
X465000Y279464D01*
X465000Y280536D01*
X465076Y281604D01*
X465229Y282665D01*
X465457Y283712D01*
X465759Y284740D01*
X466133Y285744D01*
X466578Y286719D01*
X467092Y287659D01*
X467671Y288560D01*
X468313Y289418D01*
X469015Y290228D01*
X469772Y290985D01*
X470582Y291687D01*
X471440Y292329D01*
X472341Y292908D01*
X473281Y293422D01*
X474256Y293867D01*
X475260Y294241D01*
X476288Y294543D01*
X477335Y294771D01*
X478396Y294924D01*
X479464Y295000D01*
X480536Y295000D01*
X481604Y294924D01*
X482665Y294771D01*
X483712Y294543D01*
X484740Y294241D01*
X485744Y293867D01*
X486719Y293422D01*
X487659Y292908D01*
X488560Y292329D01*
X489418Y291687D01*
X490228Y290985D01*
X490985Y290228D01*
X491687Y289418D01*
X492329Y288560D01*
X492908Y287659D01*
X493422Y286719D01*
X493867Y285744D01*
X494241Y284740D01*
X494543Y283712D01*
X494771Y282665D01*
X494924Y281604D01*
X495000Y280536D01*
X495000Y279464D01*
X65000Y549464D02*
X64924Y548396D01*
X64771Y547335D01*
X64543Y546288D01*
X64241Y545260D01*
X63867Y544256D01*
X63422Y543281D01*
X62908Y542341D01*
X62329Y541440D01*
X61687Y540582D01*
X60985Y539772D01*
X60228Y539015D01*
X59418Y538313D01*
X58560Y537671D01*
X57659Y537092D01*
X56719Y536578D01*
X55744Y536133D01*
X54740Y535759D01*
X53712Y535457D01*
X52665Y535229D01*
X51604Y535076D01*
X50536Y535000D01*
X49464Y535000D01*
X48396Y535076D01*
X47335Y535229D01*
X46288Y535457D01*
X45260Y535759D01*
X44256Y536133D01*
X43281Y536578D01*
X42341Y537092D01*
X41440Y537671D01*
X40582Y538313D01*
X39772Y539015D01*
X39015Y539772D01*
X38313Y540582D01*
X37671Y541440D01*
X37092Y542341D01*
X36578Y543281D01*
X36133Y544256D01*
X35759Y545260D01*
X35457Y546288D01*
X35229Y547335D01*
X35076Y548396D01*
X35000Y549464D01*
X35000Y550536D01*
X35076Y551604D01*
X35229Y552665D01*
X35457Y553712D01*
X35759Y554740D01*
X36133Y555744D01*
X36578Y556719D01*
X37092Y557659D01*
X37671Y558560D01*
X38313Y559418D01*
X39015Y560228D01*
X39772Y560985D01*
X40582Y561687D01*
X41440Y562329D01*
X42341Y562908D01*
X43281Y563422D01*
X44256Y563867D01*
X45260Y564241D01*
X46288Y564543D01*
X47335Y564771D01*
X48396Y564924D01*
X49464Y565000D01*
X50536Y565000D01*
X51604Y564924D01*
X52665Y564771D01*
X53712Y564543D01*
X54740Y564241D01*
X55744Y563867D01*
X56719Y563422D01*
X57659Y562908D01*
X58560Y562329D01*
X59418Y561687D01*
X60228Y560985D01*
X60985Y560228D01*
X61687Y559418D01*
X62329Y558560D01*
X62908Y557659D01*
X63422Y556719D01*
X63867Y555744D01*
X64241Y554740D01*
X64543Y553712D01*
X64771Y552665D01*
X64924Y551604D01*
X65000Y550536D01*
X65000Y549464D01*
X935000Y279464D02*
X934924Y278396D01*
X934771Y277335D01*
X934543Y276288D01*
X934241Y275260D01*
X933867Y274256D01*
X933422Y273281D01*
X932908Y272341D01*
X932329Y271440D01*
X931687Y270582D01*
X930985Y269772D01*
X930228Y269015D01*
X929418Y268313D01*
X928560Y267671D01*
X927659Y267092D01*
X926719Y266578D01*
X925744Y266133D01*
X924740Y265759D01*
X923712Y265457D01*
X922665Y265229D01*
X921604Y265076D01*
X920536Y265000D01*
X919464Y265000D01*
X918396Y265076D01*
X917335Y265229D01*
X916288Y265457D01*
X915260Y265759D01*
X914256Y266133D01*
X913281Y266578D01*
X912341Y267092D01*
X911440Y267671D01*
X910582Y268313D01*
X909772Y269015D01*
X909015Y269772D01*
X908313Y270582D01*
X907671Y271440D01*
X907092Y272341D01*
X906578Y273281D01*
X906133Y274256D01*
X905759Y275260D01*
X905457Y276288D01*
X905229Y277335D01*
X905076Y278396D01*
X905000Y279464D01*
X905000Y280536D01*
X905076Y281604D01*
X905229Y282665D01*
X905457Y283712D01*
X905759Y284740D01*
X906133Y285744D01*
X906578Y286719D01*
X907092Y287659D01*
X907671Y288560D01*
X908313Y289418D01*
X909015Y290228D01*
X909772Y290985D01*
X910582Y291687D01*
X911440Y292329D01*
X912341Y292908D01*
X913281Y293422D01*
X914256Y293867D01*
X915260Y294241D01*
X916288Y294543D01*
X917335Y294771D01*
X918396Y294924D01*
X919464Y295000D01*
X920536Y295000D01*
X921604Y294924D01*
X922665Y294771D01*
X923712Y294543D01*
X924740Y294241D01*
X925744Y293867D01*
X926719Y293422D01*
X927659Y292908D01*
X928560Y292329D01*
X929418Y291687D01*
X930228Y290985D01*
X930985Y290228D01*
X931687Y289418D01*
X932329Y288560D01*
X932908Y287659D01*
X933422Y286719D01*
X933867Y285744D01*
X934241Y284740D01*
X934543Y283712D01*
X934771Y282665D01*
X934924Y281604D01*
X935000Y280536D01*
X935000Y279464D01*
X865000Y649464D02*
X864924Y648396D01*
X864771Y647335D01*
X864543Y646288D01*
X864241Y645260D01*
X863867Y644256D01*
X863422Y643281D01*
X862908Y642341D01*
X862329Y641440D01*
X861687Y640582D01*
X860985Y639772D01*
X860228Y639015D01*
X859418Y638313D01*
X858560Y637671D01*
X857659Y637092D01*
X856719Y636578D01*
X855744Y636133D01*
X854740Y635759D01*
X853712Y635457D01*
X852665Y635229D01*
X851604Y635076D01*
X850536Y635000D01*
X849464Y635000D01*
X848396Y635076D01*
X847335Y635229D01*
X846288Y635457D01*
X845260Y635759D01*
X844256Y636133D01*
X843281Y636578D01*
X842341Y637092D01*
X841440Y637671D01*
X840582Y638313D01*
X839772Y639015D01*
X839015Y639772D01*
X838313Y640582D01*
X837671Y641440D01*
X837092Y642341D01*
X836578Y643281D01*
X836133Y644256D01*
X835759Y645260D01*
X835457Y646288D01*
X835229Y647335D01*
X835076Y648396D01*
X835000Y649464D01*
X835000Y650536D01*
X835076Y651604D01*
X835229Y652665D01*
X835457Y653712D01*
X835759Y654740D01*
X836133Y655744D01*
X836578Y656719D01*
X837092Y657659D01*
X837671Y658560D01*
X838313Y659418D01*
X839015Y660228D01*
X839772Y660985D01*
X840582Y661687D01*
X841440Y662329D01*
X842341Y662908D01*
X843281Y663422D01*
X844256Y663867D01*
X845260Y664241D01*
X846288Y664543D01*
X847335Y664771D01*
X848396Y664924D01*
X849464Y665000D01*
X850536Y665000D01*
X851604Y664924D01*
X852665Y664771D01*
X853712Y664543D01*
X854740Y664241D01*
X855744Y663867D01*
X856719Y663422D01*
X857659Y662908D01*
X858560Y662329D01*
X859418Y661687D01*
X860228Y660985D01*
X860985Y660228D01*
X861687Y659418D01*
X862329Y658560D01*
X862908Y657659D01*
X863422Y656719D01*
X863867Y655744D01*
X864241Y654740D01*
X864543Y653712D01*
X864771Y652665D01*
X864924Y651604D01*
X865000Y650536D01*
X865000Y649464D01*
X285370Y709501D02*
X285299Y708506D01*
X285157Y707518D01*
X284945Y706543D01*
X284664Y705585D01*
X284315Y704651D01*
X283900Y703743D01*
X283422Y702867D01*
X282883Y702028D01*
X282285Y701229D01*
X281631Y700475D01*
X280925Y699769D01*
X280171Y699115D01*
X279373Y698517D01*
X278533Y697978D01*
X277657Y697500D01*
X276750Y697085D01*
X275815Y696736D01*
X274857Y696455D01*
X273882Y696243D01*
X272894Y696101D01*
X271899Y696030D01*
X270901Y696030D01*
X269906Y696101D01*
X268918Y696243D01*
X267943Y696455D01*
X266985Y696736D01*
X266051Y697085D01*
X265143Y697500D01*
X264267Y697978D01*
X263428Y698517D01*
X262629Y699115D01*
X261875Y699769D01*
X261169Y700475D01*
X260515Y701229D01*
X259917Y702028D01*
X259378Y702867D01*
X258900Y703743D01*
X258485Y704651D01*
X258136Y705585D01*
X257855Y706543D01*
X257643Y707518D01*
X257501Y708506D01*
X257430Y709501D01*
X257430Y710499D01*
X257501Y711494D01*
X257643Y712482D01*
X257855Y713457D01*
X258136Y714415D01*
X258485Y715350D01*
X258900Y716257D01*
X259378Y717133D01*
X259917Y717973D01*
X260515Y718771D01*
X261169Y719525D01*
X261875Y720231D01*
X262629Y720885D01*
X263428Y721483D01*
X264267Y722022D01*
X265143Y722500D01*
X266051Y722915D01*
X266985Y723264D01*
X267943Y723545D01*
X268918Y723757D01*
X269906Y723899D01*
X270901Y723970D01*
X271899Y723970D01*
X272894Y723899D01*
X273882Y723757D01*
X274857Y723545D01*
X275815Y723264D01*
X276750Y722915D01*
X277657Y722500D01*
X278533Y722022D01*
X279373Y721483D01*
X280171Y720885D01*
X280925Y720231D01*
X281631Y719525D01*
X282285Y718771D01*
X282883Y717973D01*
X283422Y717133D01*
X283900Y716257D01*
X284315Y715350D01*
X284664Y714415D01*
X284945Y713457D01*
X285157Y712482D01*
X285299Y711494D01*
X285370Y710499D01*
X285370Y709501D01*
X742570Y709501D02*
X742499Y708506D01*
X742357Y707518D01*
X742145Y706543D01*
X741864Y705585D01*
X741515Y704651D01*
X741100Y703743D01*
X740622Y702867D01*
X740083Y702028D01*
X739485Y701229D01*
X738831Y700475D01*
X738125Y699769D01*
X737371Y699115D01*
X736573Y698517D01*
X735733Y697978D01*
X734857Y697500D01*
X733950Y697085D01*
X733015Y696736D01*
X732057Y696455D01*
X731082Y696243D01*
X730094Y696101D01*
X729099Y696030D01*
X728101Y696030D01*
X727106Y696101D01*
X726118Y696243D01*
X725143Y696455D01*
X724185Y696736D01*
X723251Y697085D01*
X722343Y697500D01*
X721467Y697978D01*
X720628Y698517D01*
X719829Y699115D01*
X719075Y699769D01*
X718369Y700475D01*
X717715Y701229D01*
X717117Y702028D01*
X716578Y702867D01*
X716100Y703743D01*
X715685Y704651D01*
X715336Y705585D01*
X715055Y706543D01*
X714843Y707518D01*
X714701Y708506D01*
X714630Y709501D01*
X714630Y710499D01*
X714701Y711494D01*
X714843Y712482D01*
X715055Y713457D01*
X715336Y714415D01*
X715685Y715350D01*
X716100Y716257D01*
X716578Y717133D01*
X717117Y717973D01*
X717715Y718771D01*
X718369Y719525D01*
X719075Y720231D01*
X719829Y720885D01*
X720628Y721483D01*
X721467Y722022D01*
X722343Y722500D01*
X723251Y722915D01*
X724185Y723264D01*
X725143Y723545D01*
X726118Y723757D01*
X727106Y723899D01*
X728101Y723970D01*
X729099Y723970D01*
X730094Y723899D01*
X731082Y723757D01*
X732057Y723545D01*
X733015Y723264D01*
X733950Y722915D01*
X734857Y722500D01*
X735733Y722022D01*
X736573Y721483D01*
X737371Y720885D01*
X738125Y720231D01*
X738831Y719525D01*
X739485Y718771D01*
X740083Y717973D01*
X740622Y717133D01*
X741100Y716257D01*
X741515Y715350D01*
X741864Y714415D01*
X742145Y713457D01*
X742357Y712482D01*
X742499Y711494D01*
X742570Y710499D01*
X742570Y709501D01*
X285370Y599501D02*
X285299Y598506D01*
X285157Y597518D01*
X284945Y596543D01*
X284664Y595585D01*
X284315Y594651D01*
X283900Y593743D01*
X283422Y592867D01*
X282883Y592028D01*
X282285Y591229D01*
X281631Y590475D01*
X280925Y589769D01*
X280171Y589115D01*
X279373Y588517D01*
X278533Y587978D01*
X277657Y587500D01*
X276750Y587085D01*
X275815Y586736D01*
X274857Y586455D01*
X273882Y586243D01*
X272894Y586101D01*
X271899Y586030D01*
X270901Y586030D01*
X269906Y586101D01*
X268918Y586243D01*
X267943Y586455D01*
X266985Y586736D01*
X266051Y587085D01*
X265143Y587500D01*
X264267Y587978D01*
X263428Y588517D01*
X262629Y589115D01*
X261875Y589769D01*
X261169Y590475D01*
X260515Y591229D01*
X259917Y592028D01*
X259378Y592867D01*
X258900Y593743D01*
X258485Y594651D01*
X258136Y595585D01*
X257855Y596543D01*
X257643Y597518D01*
X257501Y598506D01*
X257430Y599501D01*
X257430Y600499D01*
X257501Y601494D01*
X257643Y602482D01*
X257855Y603457D01*
X258136Y604415D01*
X258485Y605350D01*
X258900Y606257D01*
X259378Y607133D01*
X259917Y607973D01*
X260515Y608771D01*
X261169Y609525D01*
X261875Y610231D01*
X262629Y610885D01*
X263428Y611483D01*
X264267Y612022D01*
X265143Y612500D01*
X266051Y612915D01*
X266985Y613264D01*
X267943Y613545D01*
X268918Y613757D01*
X269906Y613899D01*
X270901Y613970D01*
X271899Y613970D01*
X272894Y613899D01*
X273882Y613757D01*
X274857Y613545D01*
X275815Y613264D01*
X276750Y612915D01*
X277657Y612500D01*
X278533Y612022D01*
X279373Y611483D01*
X280171Y610885D01*
X280925Y610231D01*
X281631Y609525D01*
X282285Y608771D01*
X282883Y607973D01*
X283422Y607133D01*
X283900Y606257D01*
X284315Y605350D01*
X284664Y604415D01*
X284945Y603457D01*
X285157Y602482D01*
X285299Y601494D01*
X285370Y600499D01*
X285370Y599501D01*
X742570Y599501D02*
X742499Y598506D01*
X742357Y597518D01*
X742145Y596543D01*
X741864Y595585D01*
X741515Y594651D01*
X741100Y593743D01*
X740622Y592867D01*
X740083Y592028D01*
X739485Y591229D01*
X738831Y590475D01*
X738125Y589769D01*
X737371Y589115D01*
X736573Y588517D01*
X735733Y587978D01*
X734857Y587500D01*
X733950Y587085D01*
X733015Y586736D01*
X732057Y586455D01*
X731082Y586243D01*
X730094Y586101D01*
X729099Y586030D01*
X728101Y586030D01*
X727106Y586101D01*
X726118Y586243D01*
X725143Y586455D01*
X724185Y586736D01*
X723251Y587085D01*
X722343Y587500D01*
X721467Y587978D01*
X720628Y588517D01*
X719829Y589115D01*
X719075Y589769D01*
X718369Y590475D01*
X717715Y591229D01*
X717117Y592028D01*
X716578Y592867D01*
X716100Y593743D01*
X715685Y594651D01*
X715336Y595585D01*
X715055Y596543D01*
X714843Y597518D01*
X714701Y598506D01*
X714630Y599501D01*
X714630Y600499D01*
X714701Y601494D01*
X714843Y602482D01*
X715055Y603457D01*
X715336Y604415D01*
X715685Y605350D01*
X716100Y606257D01*
X716578Y607133D01*
X717117Y607973D01*
X717715Y608771D01*
X718369Y609525D01*
X719075Y610231D01*
X719829Y610885D01*
X720628Y611483D01*
X721467Y612022D01*
X722343Y612500D01*
X723251Y612915D01*
X724185Y613264D01*
X725143Y613545D01*
X726118Y613757D01*
X727106Y613899D01*
X728101Y613970D01*
X729099Y613970D01*
X730094Y613899D01*
X731082Y613757D01*
X732057Y613545D01*
X733015Y613264D01*
X733950Y612915D01*
X734857Y612500D01*
X735733Y612022D01*
X736573Y611483D01*
X737371Y610885D01*
X738125Y610231D01*
X738831Y609525D01*
X739485Y608771D01*
X740083Y607973D01*
X740622Y607133D01*
X741100Y606257D01*
X741515Y605350D01*
X741864Y604415D01*
X742145Y603457D01*
X742357Y602482D01*
X742499Y601494D01*
X742570Y600499D01*
X742570Y599501D01*
X455370Y939501D02*
X455299Y938506D01*
X455157Y937518D01*
X454945Y936543D01*
X454664Y935585D01*
X454315Y934651D01*
X453900Y933743D01*
X453422Y932867D01*
X452883Y932028D01*
X452285Y931229D01*
X451631Y930475D01*
X450925Y929769D01*
X450171Y929115D01*
X449373Y928517D01*
X448533Y927978D01*
X447657Y927500D01*
X446750Y927085D01*
X445815Y926736D01*
X444857Y926455D01*
X443882Y926243D01*
X442894Y926101D01*
X441899Y926030D01*
X440901Y926030D01*
X439906Y926101D01*
X438918Y926243D01*
X437943Y926455D01*
X436985Y926736D01*
X436051Y927085D01*
X435143Y927500D01*
X434267Y927978D01*
X433428Y928517D01*
X432629Y929115D01*
X431875Y929769D01*
X431169Y930475D01*
X430515Y931229D01*
X429917Y932028D01*
X429378Y932867D01*
X428900Y933743D01*
X428485Y934651D01*
X428136Y935585D01*
X427855Y936543D01*
X427643Y937518D01*
X427501Y938506D01*
X427430Y939501D01*
X427430Y940499D01*
X427501Y941494D01*
X427643Y942482D01*
X427855Y943457D01*
X428136Y944415D01*
X428485Y945350D01*
X428900Y946257D01*
X429378Y947133D01*
X429917Y947973D01*
X430515Y948771D01*
X431169Y949525D01*
X431875Y950231D01*
X432629Y950885D01*
X433428Y951483D01*
X434267Y952022D01*
X435143Y952500D01*
X436051Y952915D01*
X436985Y953264D01*
X437943Y953545D01*
X438918Y953757D01*
X439906Y953899D01*
X440901Y953970D01*
X441899Y953970D01*
X442894Y953899D01*
X443882Y953757D01*
X444857Y953545D01*
X445815Y953264D01*
X446750Y952915D01*
X447657Y952500D01*
X448533Y952022D01*
X449373Y951483D01*
X450171Y950885D01*
X450925Y950231D01*
X451631Y949525D01*
X452285Y948771D01*
X452883Y947973D01*
X453422Y947133D01*
X453900Y946257D01*
X454315Y945350D01*
X454664Y944415D01*
X454945Y943457D01*
X455157Y942482D01*
X455299Y941494D01*
X455370Y940499D01*
X455370Y939501D01*
X912570Y939501D02*
X912499Y938506D01*
X912357Y937518D01*
X912145Y936543D01*
X911864Y935585D01*
X911515Y934651D01*
X911100Y933743D01*
X910622Y932867D01*
X910083Y932028D01*
X909485Y931229D01*
X908831Y930475D01*
X908125Y929769D01*
X907371Y929115D01*
X906573Y928517D01*
X905733Y927978D01*
X904857Y927500D01*
X903950Y927085D01*
X903015Y926736D01*
X902057Y926455D01*
X901082Y926243D01*
X900094Y926101D01*
X899099Y926030D01*
X898101Y926030D01*
X897106Y926101D01*
X896118Y926243D01*
X895143Y926455D01*
X894185Y926736D01*
X893251Y927085D01*
X892343Y927500D01*
X891467Y927978D01*
X890628Y928517D01*
X889829Y929115D01*
X889075Y929769D01*
X888369Y930475D01*
X887715Y931229D01*
X887117Y932028D01*
X886578Y932867D01*
X886100Y933743D01*
X885685Y934651D01*
X885336Y935585D01*
X885055Y936543D01*
X884843Y937518D01*
X884701Y938506D01*
X884630Y939501D01*
X884630Y940499D01*
X884701Y941494D01*
X884843Y942482D01*
X885055Y943457D01*
X885336Y944415D01*
X885685Y945350D01*
X886100Y946257D01*
X886578Y947133D01*
X887117Y947973D01*
X887715Y948771D01*
X888369Y949525D01*
X889075Y950231D01*
X889829Y950885D01*
X890628Y951483D01*
X891467Y952022D01*
X892343Y952500D01*
X893251Y952915D01*
X894185Y953264D01*
X895143Y953545D01*
X896118Y953757D01*
X897106Y953899D01*
X898101Y953970D01*
X899099Y953970D01*
X900094Y953899D01*
X901082Y953757D01*
X902057Y953545D01*
X903015Y953264D01*
X903950Y952915D01*
X904857Y952500D01*
X905733Y952022D01*
X906573Y951483D01*
X907371Y950885D01*
X908125Y950231D01*
X908831Y949525D01*
X909485Y948771D01*
X910083Y947973D01*
X910622Y947133D01*
X911100Y946257D01*
X911515Y945350D01*
X911864Y944415D01*
X912145Y943457D01*
X912357Y942482D01*
X912499Y941494D01*
X912570Y940499D01*
X912570Y939501D01*
M02*
