G04 EAGLE Gerber RS-274X export*
G75*
%MOMM*%
%FSLAX34Y34*%
%LPD*%
%AMOC8*
5,1,8,0,0,1.08239X$1,22.5*%
G01*
%ADD10C,3.203200*%
%ADD11P,2.254402X8X22.500000*%
%ADD12P,2.254402X8X202.500000*%
%ADD13C,1.733200*%
%ADD14C,2.997200*%
%ADD15C,1.727200*%
%ADD16R,1.303200X1.203200*%
%ADD17R,2.399300X0.615400*%
%ADD18R,1.203200X1.303200*%
%ADD19R,1.403200X1.403200*%
%ADD20C,0.959600*%


D10*
X280000Y280000D03*
X480000Y280000D03*
X50000Y550000D03*
X920000Y280000D03*
X850000Y650000D03*
D11*
X139500Y80000D03*
X114500Y80000D03*
X89500Y80000D03*
X64500Y80000D03*
X164500Y80000D03*
X189500Y80000D03*
X214500Y80000D03*
X239500Y80000D03*
X368000Y80000D03*
X343000Y80000D03*
X318000Y80000D03*
X293000Y80000D03*
X393000Y80000D03*
X418000Y80000D03*
X443000Y80000D03*
X468000Y80000D03*
X593000Y80000D03*
X568000Y80000D03*
X543000Y80000D03*
X518000Y80000D03*
X618000Y80000D03*
X643000Y80000D03*
X668000Y80000D03*
X693000Y80000D03*
X508000Y350000D03*
X483000Y350000D03*
X458000Y350000D03*
X433000Y350000D03*
X533000Y350000D03*
X558000Y350000D03*
X583000Y350000D03*
X608000Y350000D03*
X283000Y350000D03*
X258000Y350000D03*
X233000Y350000D03*
X208000Y350000D03*
X308000Y350000D03*
X333000Y350000D03*
X358000Y350000D03*
X383000Y350000D03*
X818000Y80000D03*
X793000Y80000D03*
X768000Y80000D03*
X743000Y80000D03*
X843000Y80000D03*
X868000Y80000D03*
X893000Y80000D03*
X918000Y80000D03*
X733000Y350000D03*
X708000Y350000D03*
X683000Y350000D03*
X658000Y350000D03*
X758000Y350000D03*
X783000Y350000D03*
X808000Y350000D03*
X833000Y350000D03*
D12*
X204000Y202700D03*
X204000Y177300D03*
X178600Y202700D03*
X178600Y177300D03*
X153200Y202700D03*
X153200Y177300D03*
X127800Y202700D03*
X127800Y177300D03*
X102400Y202700D03*
X102400Y177300D03*
X431260Y202700D03*
X431260Y177300D03*
X405860Y202700D03*
X405860Y177300D03*
X380460Y202700D03*
X380460Y177300D03*
X355060Y202700D03*
X355060Y177300D03*
X329660Y202700D03*
X329660Y177300D03*
X655800Y202700D03*
X655800Y177300D03*
X630400Y202700D03*
X630400Y177300D03*
X605000Y202700D03*
X605000Y177300D03*
X579600Y202700D03*
X579600Y177300D03*
X554200Y202700D03*
X554200Y177300D03*
X880100Y204160D03*
X880100Y178760D03*
X854700Y204160D03*
X854700Y178760D03*
X829300Y204160D03*
X829300Y178760D03*
X803900Y204160D03*
X803900Y178760D03*
X778500Y204160D03*
X778500Y178760D03*
X345440Y472280D03*
X345440Y446880D03*
X320040Y472280D03*
X320040Y446880D03*
X294640Y472280D03*
X294640Y446880D03*
X269240Y472280D03*
X269240Y446880D03*
X243840Y472280D03*
X243840Y446880D03*
X570800Y472700D03*
X570800Y447300D03*
X545400Y472700D03*
X545400Y447300D03*
X520000Y472700D03*
X520000Y447300D03*
X494600Y472700D03*
X494600Y447300D03*
X469200Y472700D03*
X469200Y447300D03*
X795800Y472700D03*
X795800Y447300D03*
X770400Y472700D03*
X770400Y447300D03*
X745000Y472700D03*
X745000Y447300D03*
X719600Y472700D03*
X719600Y447300D03*
X694200Y472700D03*
X694200Y447300D03*
D13*
X360300Y697300D03*
X360300Y722700D03*
X385700Y697300D03*
X385700Y722700D03*
X411100Y697300D03*
X411100Y722700D03*
X436500Y697300D03*
X436500Y722700D03*
X461900Y697300D03*
X461900Y722700D03*
X487300Y697300D03*
X487300Y722700D03*
X512700Y697300D03*
X512700Y722700D03*
X538100Y697300D03*
X538100Y722700D03*
X563500Y697300D03*
X563500Y722700D03*
X588900Y697300D03*
X588900Y722700D03*
X614300Y697300D03*
X614300Y722700D03*
X639700Y697300D03*
X639700Y722700D03*
D14*
X271400Y710000D03*
X728600Y710000D03*
D13*
X360300Y587300D03*
X360300Y612700D03*
X385700Y587300D03*
X385700Y612700D03*
X411100Y587300D03*
X411100Y612700D03*
X436500Y587300D03*
X436500Y612700D03*
X461900Y587300D03*
X461900Y612700D03*
X487300Y587300D03*
X487300Y612700D03*
X512700Y587300D03*
X512700Y612700D03*
X538100Y587300D03*
X538100Y612700D03*
X563500Y587300D03*
X563500Y612700D03*
X588900Y587300D03*
X588900Y612700D03*
X614300Y587300D03*
X614300Y612700D03*
X639700Y587300D03*
X639700Y612700D03*
D14*
X271400Y600000D03*
X728600Y600000D03*
D13*
X106680Y807560D03*
X106680Y832960D03*
X132080Y807560D03*
X132080Y832960D03*
X157480Y807560D03*
X157480Y832960D03*
X182880Y807560D03*
X182880Y832960D03*
X208280Y807560D03*
X208280Y832960D03*
X233680Y807560D03*
X233680Y832960D03*
X259080Y807560D03*
X259080Y832960D03*
X284480Y807560D03*
X284480Y832960D03*
X309880Y807560D03*
X309880Y832960D03*
X335280Y807560D03*
X335280Y832960D03*
X360680Y807560D03*
X360680Y832960D03*
X386080Y807560D03*
X386080Y832960D03*
X411480Y807560D03*
X411480Y832960D03*
X436880Y807560D03*
X436880Y832960D03*
X462280Y807560D03*
X462280Y832960D03*
X487680Y807560D03*
X487680Y832960D03*
X513080Y807560D03*
X513080Y832960D03*
X538480Y807560D03*
X538480Y832960D03*
X563880Y807560D03*
X563880Y832960D03*
X589280Y807560D03*
X589280Y832960D03*
X614680Y807560D03*
X614680Y832960D03*
X640080Y807560D03*
X640080Y832960D03*
X665480Y807560D03*
X665480Y832960D03*
X690880Y807560D03*
X690880Y832960D03*
X716280Y807560D03*
X716280Y832960D03*
X741680Y807560D03*
X741680Y832960D03*
X767080Y807560D03*
X767080Y832960D03*
X792480Y807560D03*
X792480Y832960D03*
X817880Y807560D03*
X817880Y832960D03*
X843280Y807560D03*
X843280Y832960D03*
X868680Y807560D03*
X868680Y832960D03*
X894080Y807560D03*
X894080Y832960D03*
D15*
X227300Y922380D02*
X227300Y937620D01*
X252700Y937620D02*
X252700Y922380D01*
D16*
X130780Y131280D03*
X147780Y131280D03*
D17*
X45691Y751430D03*
X45691Y744930D03*
X45691Y738430D03*
X45691Y731930D03*
X76229Y731930D03*
X76229Y738430D03*
X76229Y744930D03*
X76229Y751430D03*
D18*
X50960Y700180D03*
X50960Y683180D03*
X30960Y700180D03*
X30960Y683180D03*
X100960Y713180D03*
X100960Y730180D03*
D13*
X530300Y927300D03*
X530300Y952700D03*
X555700Y927300D03*
X555700Y952700D03*
X581100Y927300D03*
X581100Y952700D03*
X606500Y927300D03*
X606500Y952700D03*
X631900Y927300D03*
X631900Y952700D03*
X657300Y927300D03*
X657300Y952700D03*
X682700Y927300D03*
X682700Y952700D03*
X708100Y927300D03*
X708100Y952700D03*
X733500Y927300D03*
X733500Y952700D03*
X758900Y927300D03*
X758900Y952700D03*
X784300Y927300D03*
X784300Y952700D03*
X809700Y927300D03*
X809700Y952700D03*
D14*
X441400Y940000D03*
X898600Y940000D03*
D16*
X361500Y130000D03*
X378500Y130000D03*
X591500Y130000D03*
X608500Y130000D03*
X821500Y130000D03*
X838500Y130000D03*
X271500Y400000D03*
X288500Y400000D03*
X511500Y400000D03*
X528500Y400000D03*
X741500Y400000D03*
X758500Y400000D03*
D19*
X50960Y611180D03*
X50960Y632180D03*
D18*
X30960Y630180D03*
X30960Y613180D03*
D12*
X148100Y952700D03*
X148100Y927300D03*
X122700Y952700D03*
X122700Y927300D03*
X97300Y952700D03*
X97300Y927300D03*
X71900Y952700D03*
X71900Y927300D03*
D19*
X290000Y950500D03*
X290000Y929500D03*
D16*
X328500Y950000D03*
X311500Y950000D03*
D20*
X149860Y152400D03*
X150000Y110000D03*
X380000Y150000D03*
X380000Y110000D03*
X610000Y150000D03*
X610000Y110000D03*
X840000Y150000D03*
X840000Y110000D03*
X530000Y420000D03*
X530000Y380000D03*
X760000Y420000D03*
X760000Y380000D03*
X100960Y691680D03*
X290000Y380000D03*
X290000Y420000D03*
X81280Y683260D03*
X350000Y950000D03*
X130000Y110000D03*
X129540Y152400D03*
X360000Y150000D03*
X360000Y110000D03*
X590000Y150000D03*
X590000Y110000D03*
X820000Y150000D03*
X820000Y110000D03*
X510000Y420000D03*
X510000Y380000D03*
X740000Y420000D03*
X740000Y380000D03*
X50960Y651680D03*
X70960Y761680D03*
X270000Y420000D03*
X270000Y380000D03*
X84780Y763680D03*
X84780Y781460D03*
X170000Y880000D03*
X170000Y910000D03*
X79700Y720180D03*
X43180Y804700D03*
X26360Y743040D03*
X16200Y752500D03*
M02*
