M48
;GenerationSoftware,Autodesk,EAGLE,9.1.1*%
;CreationDate,2019-02-15T21:44:50Z*%
FMAT,2
ICI,OFF
METRIC,TZ,000.000
T5C0.350
T4C1.016
T3C1.020
T2C2.794
T1C3.000
%
G90
M71
T1
X28000Y28000
X48000Y28000
X5000Y55000
X92000Y28000
X85000Y65000
T2
X72860Y60000
X44140Y94000
X89860Y94000
X27140Y71000
X72860Y71000
X27140Y60000
T3
X36030Y58730
X56350Y58730
X53810Y61270
X53810Y58730
X51270Y61270
X51270Y58730
X48730Y61270
X48730Y58730
X46190Y61270
X46190Y58730
X43650Y61270
X43650Y58730
X41110Y61270
X41110Y58730
X38570Y61270
X38570Y58730
X36030Y61270
X63970Y72270
X63970Y69730
X61430Y72270
X61430Y69730
X58890Y72270
X58890Y69730
X56350Y72270
X56350Y69730
X53810Y72270
X53810Y69730
X51270Y72270
X51270Y69730
X48730Y72270
X48730Y69730
X46190Y72270
X46190Y69730
X43650Y72270
X43650Y69730
X41110Y72270
X41110Y69730
X38570Y72270
X38570Y69730
X36030Y72270
X81788Y83296
X36030Y69730
X56350Y61270
X58890Y58730
X58890Y61270
X61430Y58730
X61430Y61270
X63970Y58730
X63970Y61270
X10668Y80756
X10668Y83296
X13208Y80756
X13208Y83296
X15748Y80756
X15748Y83296
X18288Y80756
X18288Y83296
X20828Y80756
X20828Y83296
X23368Y80756
X23368Y83296
X25908Y80756
X25908Y83296
X28448Y80756
X28448Y83296
X30988Y80756
X30988Y83296
X33528Y80756
X33528Y83296
X36068Y80756
X36068Y83296
X38608Y80756
X38608Y83296
X41148Y80756
X41148Y83296
X43688Y80756
X43688Y83296
X46228Y80756
X46228Y83296
X48768Y80756
X48768Y83296
X51308Y80756
X51308Y83296
X53848Y80756
X53848Y83296
X56388Y80756
X56388Y83296
X58928Y80756
X58928Y83296
X61468Y80756
X61468Y83296
X64008Y80756
X64008Y83296
X66548Y80756
X66548Y83296
X69088Y80756
X69088Y83296
X71628Y80756
X71628Y83296
X74168Y80756
X74168Y83296
X76708Y80756
X76708Y83296
X79248Y80756
X79248Y83296
X81788Y80756
X84328Y80756
X84328Y83296
X86868Y80756
X86868Y83296
X89408Y80756
X89408Y83296
X53030Y92730
X53030Y95270
X55570Y92730
X55570Y95270
X58110Y92730
X58110Y95270
X60650Y92730
X60650Y95270
X63190Y92730
X63190Y95270
X65730Y92730
X65730Y95270
X68270Y92730
X68270Y95270
X70810Y92730
X70810Y95270
X73350Y92730
X73350Y95270
X75890Y92730
X75890Y95270
X78430Y92730
X78430Y95270
X80970Y92730
X80970Y95270
T4
X77850Y17876
X34544Y47228
X34544Y44688
X32004Y47228
X32004Y44688
X29464Y47228
X29464Y44688
X26924Y47228
X26924Y44688
X24384Y47228
X24384Y44688
X57080Y47270
X57080Y44730
X54540Y47270
X54540Y44730
X38046Y20270
X52000Y44730
X49460Y47270
X49460Y44730
X46920Y47270
X46920Y44730
X79580Y47270
X79580Y44730
X77040Y47270
X77040Y44730
X74500Y47270
X74500Y44730
X71960Y47270
X71960Y44730
X69420Y47270
X69420Y44730
X52000Y47270
X53300Y35000
X13950Y8000
X11450Y8000
X8950Y8000
X6450Y8000
X16450Y8000
X18950Y8000
X21450Y8000
X23950Y8000
X36800Y8000
X34300Y8000
X31800Y8000
X29300Y8000
X39300Y8000
X41800Y8000
X44300Y8000
X46800Y8000
X59300Y8000
X56800Y8000
X54300Y8000
X51800Y8000
X61800Y8000
X64300Y8000
X66800Y8000
X69300Y8000
X50800Y35000
X48300Y35000
X45800Y35000
X43300Y35000
X55800Y35000
X58300Y35000
X60800Y35000
X28300Y35000
X25800Y35000
X23300Y35000
X20800Y35000
X30800Y35000
X33300Y35000
X35800Y35000
X38300Y35000
X81800Y8000
X79300Y8000
X76800Y8000
X74300Y8000
X84300Y8000
X86800Y8000
X89300Y8000
X91800Y8000
X73300Y35000
X70800Y35000
X68300Y35000
X65800Y35000
X75800Y35000
X78300Y35000
X80800Y35000
X83300Y35000
X20400Y20270
X20400Y17730
X17860Y20270
X17860Y17730
X15320Y20270
X15320Y17730
X12780Y20270
X12780Y17730
X10240Y20270
X10240Y17730
X43126Y20270
X43126Y17730
X40586Y20270
X40586Y17730
X22730Y93000
X25270Y93000
X38046Y17730
X35506Y20270
X35506Y17730
X32966Y20270
X32966Y17730
X65580Y20270
X65580Y17730
X63040Y20270
X63040Y17730
X60500Y20270
X60500Y17730
X57960Y20270
X57960Y17730
X55420Y20270
X55420Y17730
X88010Y20416
X88010Y17876
X85470Y20416
X85470Y17876
X82930Y20416
X82930Y17876
X80390Y20416
X80390Y17876
X77850Y20416
X14810Y95270
X14810Y92730
X12270Y95270
X12270Y92730
X9730Y95270
X9730Y92730
X7190Y95270
X7190Y92730
T5
X14986Y15240
X35000Y95000
X8128Y68326
X29000Y42000
X29000Y38000
X10096Y69168
X76000Y38000
X76000Y42000
X53000Y38000
X53000Y42000
X84000Y11000
X84000Y15000
X61000Y11000
X61000Y15000
X38000Y11000
X38000Y15000
X15000Y11000
X2636Y74304
X4318Y80470
X7970Y72018
X17000Y91000
X17000Y88000
X8478Y78146
X8478Y76368
X27000Y38000
X27000Y42000
X7096Y76168
X5096Y65168
X74000Y38000
X74000Y42000
X51000Y38000
X51000Y42000
X82000Y11000
X82000Y15000
X59000Y11000
X59000Y15000
X36000Y11000
X36000Y15000
X12954Y15240
X13000Y11000
X1620Y75250
M30